<?xml version="1.0" standalone="no"?>
<!DOCTYPE svg PUBLIC "-//W3C//DTD SVG 20010904//EN"
 "http://www.w3.org/TR/2001/REC-SVG-20010904/DTD/svg10.dtd">
<svg version="1.0" xmlns="http://www.w3.org/2000/svg"
 width="203.000000pt" height="203.000000pt" viewBox="0 0 203.000000 203.000000"
 preserveAspectRatio="xMidYMid meet">
<metadata>
Created by potrace 1.11, written by Peter Selinger 2001-2013
</metadata>
<g transform="translate(0.000000,203.000000) scale(0.100000,-0.100000)"
fill="#000000" stroke="none">
<path d="M889 2016 c-257 -57 -416 -273 -463 -632 -15 -113 -18 -391 -5 -509
43 -396 167 -614 397 -697 79 -29 271 -31 352 -4 30 10 65 25 77 32 22 14 25
10 94 -92 l71 -107 47 50 c56 60 135 152 139 162 1 4 -6 16 -16 26 -9 11 -29
36 -42 55 -13 19 -30 41 -38 49 -45 46 -46 56 -13 135 29 69 62 192 75 276 30
191 26 528 -8 715 -2 11 -6 37 -10 58 -19 103 -77 240 -132 313 -64 83 -121
125 -218 161 -54 19 -235 25 -307 9z m222 -433 c59 -42 100 -136 125 -288 19
-114 8 -514 -15 -537 -5 -6 -57 66 -132 184 -4 6 -26 -11 -50 -38 -24 -26 -65
-71 -91 -98 -26 -28 -48 -54 -48 -58 0 -4 36 -58 80 -119 44 -61 77 -115 74
-120 -3 -5 -25 -9 -50 -9 -176 0 -250 221 -221 656 13 192 55 335 120 403 40
41 59 50 120 50 38 1 58 -5 88 -26z"/>
</g>
</svg>
